D:\school\WTK\thesis\model\3dpredictsim\Results\Batchsim_tmt_linear_v2\Pog_s1_tmt_aCst_d00_k800_ig24_act_GRF.mot
nRows=15
nColumns=19

name D:\school\WTK\thesis\model\3dpredictsim\Results\Batchsim_tmt_linear_v2\Pog_s1_tmt_aCst_d00_k800_ig24_act_GRF.mot
datacolumns 19
datarows 15
range 0.0000000000 0.1931196768
endheader
time 	ground_force_vx	ground_force_vy	ground_force_vz	ground_force_px	ground_force_py	ground_force_pz	1_ground_force_vx	1_ground_force_vy	1_ground_force_vz	1_ground_force_px	1_ground_force_py	1_ground_force_pz	ground_torque_x	ground_torque_y	ground_torque_z	1_ground_torque_x	1_ground_torque_y	1_ground_torque_z
        0.0000000000	      -77.0198186471	       64.0094495881	       13.6428275864	        0.2354451801	        0.0000000000	        0.0521634308	       40.0128660774	      238.2183081505	      -12.8419239417	       -0.3788357782	        0.0000000000	       -0.0414812701	        0.0000000000	        0.0000000000	        0.0000000000	        0.0000000000	        0.0000000000	        0.0000000000	
        0.0137942626	     -149.1701228071	      253.8396987719	       31.4002209918	        0.2429827456	        0.0000000000	        0.0509532113	       36.1028383618	      207.5291916190	      -14.1621190365	       -0.3781772151	        0.0000000000	       -0.0412253803	        0.0000000000	        0.0000000000	        0.0000000000	        0.0000000000	        0.0000000000	        0.0000000000	
        0.0275885253	     -129.4145193948	      579.6531088998	        0.9716914356	        0.2476407935	        0.0000000000	        0.0504014229	       34.3990524013	      163.0348602415	      -14.3135456986	       -0.3776612951	        0.0000000000	       -0.0413546998	        0.0000000000	        0.0000000000	        0.0000000000	        0.0000000000	        0.0000000000	        0.0000000000	
        0.0413827879	     -185.7467346633	      870.3199444486	      -15.4240438660	        0.2588584929	        0.0000000000	        0.0527331377	       27.8609975687	      105.9351613183	      -15.9271569070	       -0.3770100580	        0.0000000000	       -0.0418277773	        0.0000000000	        0.0000000000	        0.0000000000	        0.0000000000	        0.0000000000	        0.0000000000	
        0.0551770505	     -236.7652313653	     1016.2959641059	      -18.1363601430	        0.2695539631	        0.0000000000	        0.0552506568	        7.0479582562	       38.5698599264	       -8.7586053465	       -0.3774225374	        0.0000000000	       -0.0421224119	        0.0000000000	        0.0000000000	        0.0000000000	        0.0000000000	        0.0000000000	        0.0000000000	
        0.0689713131	     -225.9642071808	      983.0262184082	      -16.2207108153	        0.2762979850	        0.0000000000	        0.0566003704	        0.2843415276	       -0.2812391318	        0.0194558759	        0.0000000000	        0.0000000000	        0.0000000000	        0.0000000000	        0.0000000000	        0.0000000000	        0.0000000000	        0.0000000000	        0.0000000000	
        0.0827655758	     -190.3274566531	      888.0680831318	      -14.2621699706	        0.2813049993	        0.0000000000	        0.0574262856	        0.3198654744	       -0.2415089059	       -0.0120111843	        0.0000000000	        0.0000000000	        0.0000000000	        0.0000000000	        0.0000000000	        0.0000000000	        0.0000000000	        0.0000000000	        0.0000000000	
        0.0965598384	     -162.4625864097	      805.7786938376	      -12.1051424884	        0.2859831525	        0.0000000000	        0.0579819627	       -6.1991642240	        3.9804005886	        0.3199049359	        0.0000000000	        0.0000000000	        0.0000000000	        0.0000000000	        0.0000000000	        0.0000000000	        0.0000000000	        0.0000000000	        0.0000000000	
        0.1103541010	     -144.3554893619	      764.1258909153	      -13.2768057394	        0.2915757367	        0.0000000000	        0.0584673274	       -6.2771498556	        3.5577731215	        0.3641368477	        0.0000000000	        0.0000000000	        0.0000000000	        0.0000000000	        0.0000000000	        0.0000000000	        0.0000000000	        0.0000000000	        0.0000000000	
        0.1241483637	     -132.2477043860	      738.2741914662	      -13.1135364625	        0.2982380725	        0.0000000000	        0.0584892000	       -5.8763738804	        3.0256870045	        0.3536175711	        0.0000000000	        0.0000000000	        0.0000000000	        0.0000000000	        0.0000000000	        0.0000000000	        0.0000000000	        0.0000000000	        0.0000000000	
        0.1379426263	     -119.1726222376	      709.1237151007	      -13.1756290701	        0.3042510879	        0.0000000000	        0.0584071376	       -5.9482973864	        2.8626258317	        0.3357070803	        0.0000000000	        0.0000000000	        0.0000000000	        0.0000000000	        0.0000000000	        0.0000000000	        0.0000000000	        0.0000000000	        0.0000000000	
        0.1517368889	     -106.7300169558	      679.4941273454	      -13.2930624627	        0.3096513027	        0.0000000000	        0.0582633363	       -5.8434674563	        2.7061011846	        0.2581820890	        0.0000000000	        0.0000000000	        0.0000000000	        0.0000000000	        0.0000000000	        0.0000000000	        0.0000000000	        0.0000000000	        0.0000000000	
        0.1655311515	      -96.2038010816	      655.1301917175	      -13.9904244179	        0.3146504513	        0.0000000000	        0.0580729535	       -5.5110021440	        2.4800865831	        0.1824259067	        0.0000000000	        0.0000000000	        0.0000000000	        0.0000000000	        0.0000000000	        0.0000000000	        0.0000000000	        0.0000000000	        0.0000000000	
        0.1793254142	      -86.6337434835	      635.0147144179	      -15.0291627391	        0.3192641305	        0.0000000000	        0.0578978038	       -4.8923262826	        2.1590336379	        0.1111914175	        0.0000000000	        0.0000000000	        0.0000000000	        0.0000000000	        0.0000000000	        0.0000000000	        0.0000000000	        0.0000000000	        0.0000000000	
        0.1931196768	      -78.2147481163	      617.8784455116	      -16.3144614754	        0.3236247005	        0.0000000000	        0.0577227213	       -4.0862760799	        1.7782307101	        0.0568203695	        0.0000000000	        0.0000000000	        0.0000000000	        0.0000000000	        0.0000000000	        0.0000000000	        0.0000000000	        0.0000000000	        0.0000000000	
